<?xml version="1.0" encoding="UTF-8" standalone="no"?>
<!DOCTYPE svg PUBLIC "-//W3C//DTD SVG 1.1//EN" "http://www.w3.org/Graphics/SVG/1.1/DTD/svg11.dtd">
<svg width="100%" height="100%" viewBox="0 0 296 296" version="1.1" xmlns="http://www.w3.org/2000/svg" xmlns:xlink="http://www.w3.org/1999/xlink" xml:space="preserve" xmlns:serif="http://www.serif.com/" style="fill-rule:evenodd;clip-rule:evenodd;stroke-linejoin:round;stroke-miterlimit:2;">
    <g transform="matrix(1,0,0,1,-236.22,-177.165)">
        <g>
            <path d="M531.496,177.165L531.496,472.441L236.22,472.441L236.22,177.165L531.496,177.165ZM338.213,346.043C340.861,346.043 343.4,346.02 345.835,345.973L372.984,318.824C380.322,325.259 392.929,330.692 410.803,335.123C424.867,338.62 433.876,341.053 437.829,342.421C443.607,344.474 447.655,346.887 449.973,349.662C452.292,352.437 453.451,355.801 453.451,359.754C453.451,365.912 450.696,371.29 445.184,375.889C439.672,380.489 431.481,382.788 420.61,382.788C410.347,382.788 402.194,380.204 396.15,375.034C390.107,369.865 386.097,361.768 384.12,350.745L351.279,353.938C353.483,372.639 360.249,386.874 371.577,396.643C382.904,406.412 399.134,411.296 420.268,411.296C434.788,411.296 446.914,409.263 456.644,405.196C466.375,401.128 473.901,394.914 479.223,386.551C484.544,378.189 487.205,369.219 487.205,359.64C487.205,349.073 484.981,340.197 480.534,333.013C476.087,325.829 469.929,320.166 462.061,316.023C454.193,311.88 442.048,307.869 425.628,303.992C411.915,300.755 402.443,297.623 397.212,294.596L412.102,279.706C410.69,271.185 407.654,263.896 402.995,257.839C396.308,249.146 388.009,243.502 378.097,240.906C371.646,239.175 357.801,238.31 336.561,238.31L280.512,238.31L280.512,411.296L315.439,376.369L315.439,346.043L338.213,346.043ZM332.313,267.574C344.901,267.574 353.278,267.967 357.447,268.754C363.111,269.776 367.792,272.333 371.489,276.424C375.186,280.514 377.035,285.706 377.035,291.999C377.035,297.113 375.717,301.597 373.082,305.451C370.447,309.306 366.808,312.138 362.167,313.947C357.526,315.757 348.322,316.661 334.555,316.661L315.439,316.661L315.439,267.574L332.313,267.574ZM449.05,242.758C455.573,245.015 461.126,248.132 465.71,252.108C476.315,261.306 481.883,273.584 482.415,288.94L448.662,290.423C447.218,281.832 444.12,275.655 439.368,271.892C435.897,269.143 431.158,267.398 425.15,266.658L449.05,242.758Z" style="fill:rgb(235,235,235);"/>
        </g>
    </g>
</svg>
